<svg id="Lager_1" data-name="Lager 1" xmlns="http://www.w3.org/2000/svg" viewBox="0 0 407.91 407.91"><defs><style>.cls-1{fill:#463ca0;}.cls-2{fill:#ededed;}</style></defs><title>VTVheart_square</title><rect class="cls-1" width="407.91" height="407.91"/><path class="cls-2" d="M682.68,517.53h-.21a25,25,0,0,1-17.71-7.31h0c-5.86-5.84-70.58-75.06-85.77-93.48a16.43,16.43,0,1,1,25.36-20.91c12.55,15.22,61.73,68,78.22,85.48,16.49-17.45,65.67-70.26,78.22-85.48a16.43,16.43,0,0,1,25.36,20.91c-15.19,18.42-79.91,87.64-85.77,93.48h0A25,25,0,0,1,682.68,517.53Zm-1.12,0h0Zm0,0h0Z" transform="translate(-478.62 -180.05)"/><path class="cls-2" d="M795.82,373.3a16.45,16.45,0,0,1-15.89-20.66,58.38,58.38,0,0,0-3-39.34,50.28,50.28,0,0,0-22.17-23.37c-20-10.46-45.84-8.28-61.36,5.2a16.39,16.39,0,0,1-10.77,4h-.13a16.39,16.39,0,0,1-10.77-4c-15.52-13.47-41.33-15.66-61.37-5.2a50.28,50.28,0,0,0-22.16,23.37,58.39,58.39,0,0,0-3,39.34,16.43,16.43,0,0,1-31.76,8.45,90.92,90.92,0,0,1,4.79-61.31,83.76,83.76,0,0,1,36.9-39c27.9-14.57,62.07-13.5,87.43,1.74,25.35-15.24,59.53-16.31,87.42-1.75a83.77,83.77,0,0,1,36.9,39,90.92,90.92,0,0,1,4.79,61.32A16.44,16.44,0,0,1,795.82,373.3Zm-102-78.66-.05.05Zm0,0,0,0Zm0,0,0,0Z" transform="translate(-478.62 -180.05)"/></svg>