<svg class="footer--logo_image" data-name="Lager 1" xmlns="http://www.w3.org/2000/svg" viewBox="0 0 240.85 323.39">
    <defs>
        <style>.p-cls-1{fill:#ededed;}.p-cls-2,.p-cls-3{fill:#463ca0;}.p-cls-3{font-size:32.32px;font-family:OpenSans-Bold, Open
            Sans;font-weight:700;}.p-cls-4{letter-spacing:-0.03em;}.p-cls-5{letter-spacing:-0.01em;}.p-cls-6{letter-spacing:-0.01em;}.p-cls-7{letter-spacing:-0.03em;}.p-cls-8{letter-spacing:-0.01em;}.p-cls-9{letter-spacing:-0.01em;}.p-cls-10{letter-spacing:-0.01em;}.p-cls-11{letter-spacing:0em;}.p-cls-12{letter-spacing:-0.01em;}.p-cls-13{letter-spacing:-0.01em;}.p-cls-14{letter-spacing:-0.01em;}.p-cls-15{letter-spacing:-0.14em;}.p-cls-16{letter-spacing:-0.03em;}.p-cls-17{letter-spacing:-0.01em;}.p-cls-18{letter-spacing:-0.01em;}.p-cls-19{letter-spacing:-0.01em;}.p-cls-20{letter-spacing:-0.01em;}
        </style>
    </defs>
    <title>VTVlogo_purple</title>
    <rect class="p-cls-1" width="240.85" height="316.93"/>
    <path class="p-cls-2"
          d="M683.05,410.43h-.11a12.34,12.34,0,0,1-8.76-3.62h0c-2.9-2.89-34.92-37.14-42.44-46.25a8.13,8.13,0,1,1,12.55-10.35c6.21,7.53,30.54,33.66,38.7,42.3,8.16-8.64,32.49-34.76,38.7-42.3a8.13,8.13,0,0,1,12.55,10.35c-7.52,9.11-39.54,43.37-42.44,46.25h0A12.34,12.34,0,0,1,683.05,410.43Zm-.55,0h0Zm0,0h0Z"
          transform="translate(-562.57 -222.3)"/>
    <path class="p-cls-2"
          d="M739,339.06a8.14,8.14,0,0,1-7.86-10.22,28.89,28.89,0,0,0-1.48-19.46,24.88,24.88,0,0,0-11-11.56c-9.91-5.18-22.68-4.09-30.36,2.57a8.11,8.11,0,0,1-5.33,2H683a8.11,8.11,0,0,1-5.33-2c-7.68-6.67-20.45-7.75-30.36-2.57a24.88,24.88,0,0,0-11,11.56,28.89,28.89,0,0,0-1.48,19.46A8.13,8.13,0,1,1,619.12,333a45,45,0,0,1,2.37-30.34,41.45,41.45,0,0,1,18.26-19.28c13.8-7.21,30.71-6.68,43.26.86,12.55-7.54,29.45-8.07,43.25-.87a41.45,41.45,0,0,1,18.26,19.28A45,45,0,0,1,746.88,333,8.13,8.13,0,0,1,739,339.06Zm-50.47-38.92,0,0Zm0,0h0Zm0,0h0Z"
          transform="translate(-562.57 -222.3)"/>
    <text class="p-cls-3" transform="translate(36.58 258.88) scale(0.88 1)">
        <tspan class="p-cls-4">V</tspan>
        <tspan class="p-cls-5" x="20.18" y="0">ä</tspan>
        <tspan class="p-cls-6" x="39.31" y="0">l</tspan>
        <tspan class="p-cls-7" x="48.75" y="0">k</tspan>
        <tspan class="p-cls-8" x="67.83" y="0">o</tspan>
        <tspan class="p-cls-9" x="87.55" y="0">m</tspan>
        <tspan class="p-cls-10" x="118.9" y="0">m</tspan>
        <tspan class="p-cls-11" x="150.36" y="0">e</tspan>
        <tspan x="169.33" y="0">n</tspan>
        <tspan class="p-cls-12" x="9.44" y="32.32">t</tspan>
        <tspan class="p-cls-13" x="23.12" y="32.32">i</tspan>
        <tspan class="p-cls-14" x="32.57" y="32.32">l</tspan>
        <tspan x="42.01" y="32.32">l</tspan>
        <tspan class="p-cls-15" x="51.87" y="32.32"></tspan>
        <tspan class="p-cls-16" x="55.75" y="32.32">V</tspan>
        <tspan class="p-cls-17" x="75.93" y="32.32">ä</tspan>
        <tspan class="p-cls-18" x="95.05" y="32.32">r</tspan>
        <tspan class="p-cls-19" x="109.38" y="32.32">m</tspan>
        <tspan class="p-cls-20" x="140.94" y="32.32">d</tspan>
        <tspan x="161.12" y="32.32">ö</tspan>
    </text>
</svg>
